<svg width="23" height="24" viewBox="0 0 23 24" fill="none" xmlns="http://www.w3.org/2000/svg">
<circle cx="11.5" cy="12" r="11.5" fill="#F4F6FD"/>
<path d="M9.73828 16.3066L6.15039 12.7402C6.05013 12.64 6 12.5111 6 12.3535C6 12.196 6.05013 12.0671 6.15039 11.9668L6.94531 11.1934C7.04557 11.0788 7.16732 11.0215 7.31055 11.0215C7.4681 11.0215 7.60417 11.0788 7.71875 11.1934L10.125 13.5996L15.2812 8.44336C15.3958 8.32878 15.5247 8.27148 15.668 8.27148C15.8255 8.27148 15.9544 8.32878 16.0547 8.44336L16.8496 9.2168C16.9499 9.31706 17 9.44596 17 9.60352C17 9.76107 16.9499 9.88997 16.8496 9.99023L10.5117 16.3066C10.4115 16.4212 10.2826 16.4785 10.125 16.4785C9.96745 16.4785 9.83854 16.4212 9.73828 16.3066Z" fill="#1E4DD8"/>
</svg>
